<svg width="32" height="32" viewBox="0 0 32 32" fill="none" xmlns="http://www.w3.org/2000/svg">
<path d="M16.0003 15.3333C15.1163 15.3333 14.2684 14.9821 13.6433 14.357C13.0182 13.7319 12.667 12.884 12.667 12C12.667 11.1159 13.0182 10.2681 13.6433 9.64297C14.2684 9.01785 15.1163 8.66666 16.0003 8.66666C16.8844 8.66666 17.7322 9.01785 18.3573 9.64297C18.9825 10.2681 19.3337 11.1159 19.3337 12C19.3337 12.4377 19.2474 12.8712 19.0799 13.2756C18.9124 13.68 18.6669 14.0475 18.3573 14.357C18.0478 14.6665 17.6804 14.9121 17.2759 15.0796C16.8715 15.2471 16.4381 15.3333 16.0003 15.3333ZM16.0003 2.66666C13.525 2.66666 11.151 3.64999 9.40066 5.40033C7.65032 7.15067 6.66699 9.52464 6.66699 12C6.66699 19 16.0003 29.3333 16.0003 29.3333C16.0003 29.3333 25.3337 19 25.3337 12C25.3337 9.52464 24.3503 7.15067 22.6 5.40033C20.8496 3.64999 18.4757 2.66666 16.0003 2.66666Z" fill="#272727"/>
</svg>
