<svg width="32" height="32" viewBox="0 0 32 32" fill="none" xmlns="http://www.w3.org/2000/svg">
<path d="M16.0003 2.66667C14.2494 2.66667 12.5156 3.01154 10.8979 3.68161C9.2802 4.35167 7.81035 5.33379 6.57224 6.57191C4.07175 9.07239 2.66699 12.4638 2.66699 16C2.66699 21.8933 6.49366 26.8933 11.787 28.6667C12.4537 28.7733 12.667 28.36 12.667 28V25.7467C8.97366 26.5467 8.18699 23.96 8.18699 23.96C7.57366 22.4133 6.70699 22 6.70699 22C5.49366 21.1733 6.80033 21.2 6.80033 21.2C8.13366 21.2933 8.84033 22.5733 8.84033 22.5733C10.0003 24.6 11.9603 24 12.7203 23.68C12.8403 22.8133 13.187 22.2267 13.5603 21.8933C10.6003 21.56 7.49366 20.4133 7.49366 15.3333C7.49366 13.8533 8.00033 12.6667 8.86699 11.72C8.73366 11.3867 8.26699 10 9.00033 8.2C9.00033 8.2 10.1203 7.84 12.667 9.56C13.7203 9.26667 14.867 9.12 16.0003 9.12C17.1337 9.12 18.2803 9.26667 19.3337 9.56C21.8803 7.84 23.0003 8.2 23.0003 8.2C23.7337 10 23.267 11.3867 23.1337 11.72C24.0003 12.6667 24.507 13.8533 24.507 15.3333C24.507 20.4267 21.387 21.5467 18.4137 21.88C18.8937 22.2933 19.3337 23.1067 19.3337 24.3467V28C19.3337 28.36 19.547 28.7867 20.227 28.6667C25.5203 26.88 29.3337 21.8933 29.3337 16C29.3337 14.249 28.9888 12.5152 28.3187 10.8976C27.6487 9.27988 26.6665 7.81002 25.4284 6.57191C24.1903 5.33379 22.7204 4.35167 21.1028 3.68161C19.4851 3.01154 17.7513 2.66667 16.0003 2.66667Z" fill="#272727"/>
</svg>
