<svg width="32" height="32" viewBox="0 0 32 32" fill="none" xmlns="http://www.w3.org/2000/svg">
<path d="M2 2V30H30V2H2ZM8.8667 7.50464C9.97573 7.51712 11.0682 8.28222 11.1157 9.60669C11.1394 10.7844 10.1131 11.6815 8.83765 11.7087H8.80689C7.7089 11.6961 6.63661 10.9118 6.58691 9.60669C6.60257 8.44205 7.58154 7.53226 8.8667 7.50464ZM20.7646 13.0691C21.9839 13.0767 23.1347 13.4384 24.0801 14.4021C25.0625 15.4979 25.378 17.0087 25.4131 18.5447V25.531H21.3867V19.0198C21.3778 17.7994 20.9597 16.316 19.3445 16.2666C18.3978 16.2767 17.7303 16.8268 17.2732 17.7466C17.1484 18.0426 17.1304 18.383 17.1245 18.7224V25.531H13.0999C13.1153 22.1272 13.1364 18.7237 13.1289 15.3198C13.1289 14.3529 13.1196 13.7019 13.0999 13.3665H17.1245V15.0823C17.4661 14.5964 17.845 14.1356 18.3532 13.7646C19.0426 13.2727 19.8707 13.0841 20.7646 13.0691ZM6.82447 13.3665H10.8491V25.531H6.82447V13.3665Z" fill="#272727"/>
</svg>
