<svg width="32" height="32" viewBox="0 0 32 32" fill="none" xmlns="http://www.w3.org/2000/svg">
<path d="M5.4 28C5.17778 28 4.94444 27.9942 4.7 27.9827C4.45556 27.9711 4.22222 27.9547 4 27.9333V20.1333L10.6667 18.8L14.5333 22.6667C16.2222 21.6444 17.7724 20.4333 19.184 19.0333C20.5956 17.6333 21.7676 16.1333 22.7 14.5333L18.9 10.7L20.1333 4H27.9333C27.9778 4.22222 28 4.45556 28 4.7V5.4C28 8.26667 27.3613 11.0613 26.084 13.784C24.8067 16.5067 23.1178 18.9231 21.0173 21.0333C18.9169 23.1444 16.5058 24.8333 13.784 26.1C11.0622 27.3667 8.26756 28 5.4 28Z" fill="#272727"/>
</svg>
