<svg width="32" height="32" viewBox="0 0 32 32" fill="none" xmlns="http://www.w3.org/2000/svg">
<path d="M29.1975 18.975C29.4035 18.0486 29.5062 17.1022 29.5038 16.1531C29.5038 8.88313 23.5232 2.98438 16.1419 2.98438C15.3772 2.98383 14.6138 3.04654 13.8594 3.17188C12.6258 2.40177 11.1999 1.99557 9.74567 2.00001C5.47192 2.00001 2.00004 5.42 2.00004 9.63438C1.99549 10.9956 2.36288 12.3323 3.06254 13.5C2.88361 14.3709 2.79315 15.2577 2.79254 16.1469C2.79254 23.4244 8.77317 29.3156 16.1469 29.3156C16.9663 29.3177 17.7841 29.2445 18.59 29.0969C19.7197 29.6918 20.9776 30.0018 22.2544 30C26.5357 30 30 26.58 30 22.3656C30.0072 21.1875 29.732 20.0249 29.1975 18.975ZM23 22.4375C22.38 23.2975 21.4682 23.9831 20.2869 24.4644C19.1057 24.9456 17.71 25.1875 16.1057 25.1875C14.1875 25.1875 12.5832 24.8519 11.3213 24.1956C10.4465 23.7353 9.69211 23.0759 9.11879 22.2706C8.54942 21.4688 8.26504 20.6669 8.26504 19.8956C8.26504 19.4144 8.45254 18.9988 8.81942 18.6488C9.18442 18.3131 9.65817 18.1381 10.2125 18.1381C10.6719 18.1381 11.0657 18.2694 11.3869 18.5394C11.6932 18.7944 11.9557 19.1738 12.1669 19.6694C12.3717 20.1441 12.6302 20.5937 12.9375 21.0094C13.2009 21.3519 13.573 21.6363 14.0538 21.8625C14.5425 22.0888 15.1913 22.205 15.9913 22.205C17.0925 22.205 17.9969 21.9719 18.675 21.5125C19.3463 21.0675 19.6675 20.5281 19.6675 19.8719C19.6675 19.3544 19.4994 18.9456 19.1494 18.625C18.785 18.2894 18.3107 18.0269 17.72 17.8519C17.1144 17.6644 16.2907 17.4656 15.2694 17.2544C13.8838 16.9625 12.7069 16.6125 11.7694 16.2188C10.8144 15.8175 10.0413 15.2563 9.47192 14.5638C8.89567 13.8563 8.61129 12.9669 8.61129 11.9238C8.6015 10.9597 8.92049 10.021 9.51567 9.26251C10.1138 8.49688 10.9819 7.89876 12.1125 7.49063C13.2213 7.08251 14.5413 6.87813 16.0288 6.87813C17.225 6.87813 18.2682 7.01688 19.1432 7.27938C20.0182 7.54188 20.7625 7.91376 21.3532 8.36563C21.9438 8.81751 22.3744 9.29876 22.6513 9.80313C22.9282 10.3075 23.0675 10.8169 23.0675 11.3031C23.0675 11.7694 22.885 12.2 22.52 12.5719C22.343 12.7561 22.1298 12.9017 21.8939 12.9996C21.6579 13.0974 21.4042 13.1455 21.1488 13.1406C20.6532 13.1406 20.2663 13.0238 19.9969 12.7906C19.7469 12.5719 19.4863 12.2363 19.2019 11.7475C18.8663 11.1281 18.465 10.6319 18.0057 10.2819C17.5532 9.94688 16.8094 9.77188 15.7738 9.77188C14.8182 9.77188 14.0382 9.95938 13.4613 10.3344C12.9069 10.6919 12.6369 11.1075 12.6369 11.5956C12.63 11.8753 12.7261 12.1478 12.9069 12.3613C13.1269 12.6143 13.3978 12.8182 13.7019 12.9594C14.0444 13.1315 14.4035 13.2683 14.7738 13.3675C15.1488 13.47 15.7657 13.6231 16.6194 13.8125C17.7057 14.0388 18.6975 14.3013 19.5732 14.5706C20.4632 14.855 21.2288 15.1956 21.8557 15.5988C22.4783 15.9918 22.9964 16.5299 23.3657 17.1669C23.7232 17.7919 23.9057 18.5813 23.9057 19.4856C23.9454 20.5436 23.6262 21.5839 23 22.4375Z" fill="#252525"/>
</svg>
