<svg width="33" height="32" viewBox="0 0 33 32" fill="none" xmlns="http://www.w3.org/2000/svg">
<path d="M16.4193 2.66666C23.7833 2.66666 29.7526 8.63599 29.7526 16C29.7526 23.364 23.7833 29.3333 16.4193 29.3333C14.063 29.3371 11.7482 28.7135 9.71262 27.5267L3.09129 29.3333L4.89396 22.7093C3.70608 20.6732 3.08202 18.3573 3.08596 16C3.08596 8.63599 9.05529 2.66666 16.4193 2.66666ZM11.8753 9.73332L11.6086 9.74399C11.436 9.7545 11.2673 9.79986 11.1126 9.87732C10.968 9.95923 10.836 10.0616 10.7206 10.1813C10.5606 10.332 10.47 10.4627 10.3726 10.5893C9.87945 11.2305 9.61392 12.0177 9.61796 12.8267C9.62062 13.48 9.79129 14.116 10.058 14.7107C10.6033 15.9133 11.5006 17.1867 12.6846 18.3667C12.97 18.6507 13.25 18.936 13.5513 19.2013C15.0225 20.4966 16.7756 21.4307 18.6713 21.9293L19.4286 22.0453C19.6753 22.0587 19.922 22.04 20.17 22.028C20.5583 22.0079 20.9374 21.9028 21.2806 21.72C21.4552 21.6301 21.6256 21.5322 21.7913 21.4267C21.7913 21.4267 21.8486 21.3893 21.958 21.3067C22.138 21.1733 22.2486 21.0787 22.398 20.9227C22.5086 20.808 22.6046 20.6733 22.678 20.52C22.782 20.3027 22.886 19.888 22.9286 19.5427C22.9606 19.2787 22.9513 19.1347 22.9473 19.0453C22.942 18.9027 22.8233 18.7547 22.694 18.692L21.918 18.344C21.918 18.344 20.758 17.8387 20.0486 17.516C19.9744 17.4836 19.8949 17.4651 19.814 17.4613C19.7227 17.452 19.6306 17.4622 19.5436 17.4914C19.4567 17.5206 19.377 17.5681 19.31 17.6307C19.3033 17.628 19.214 17.704 18.25 18.872C18.1946 18.9463 18.1184 19.0025 18.031 19.0334C17.9436 19.0643 17.849 19.0684 17.7593 19.0453C17.6724 19.022 17.5873 18.9926 17.5046 18.9573C17.3393 18.888 17.282 18.8613 17.1686 18.8133C16.4034 18.4794 15.6949 18.0282 15.0686 17.476C14.9006 17.3293 14.7446 17.1693 14.5846 17.0147C14.0601 16.5123 13.6029 15.944 13.2246 15.324L13.146 15.1973C13.0895 15.1122 13.0438 15.0204 13.01 14.924C12.9593 14.728 13.0913 14.5707 13.0913 14.5707C13.0913 14.5707 13.4153 14.216 13.566 14.024C13.7126 13.8373 13.8366 13.656 13.9166 13.5267C14.074 13.2733 14.1233 13.0133 14.0406 12.812C13.6673 11.9 13.2806 10.992 12.8833 10.0907C12.8046 9.91199 12.5713 9.78399 12.3593 9.75866C12.2873 9.75066 12.2153 9.74266 12.1433 9.73732C11.9642 9.72843 11.7848 9.73021 11.606 9.74266L11.8753 9.73332Z" fill="#272727"/>
</svg>
