<svg width="75" height="129" viewBox="0 0 75 129" fill="none" xmlns="http://www.w3.org/2000/svg">
<path d="M17.2014 87.8509C15.7723 91.3362 15.5109 94.757 16.4171 98.1131C17.4954 102.107 20.0109 104.755 23.9635 106.058C26.2734 106.847 28.6603 106.909 31.1243 106.244C33.6308 105.567 35.6655 104.493 37.2284 103.023C40.1878 100.309 41.312 96.7923 40.6012 92.4718C40.5634 92.163 40.5043 91.8598 40.424 91.5625C39.9996 89.9906 39.0947 88.4117 37.7093 86.8259C36.3664 85.2285 34.5113 83.929 32.1441 82.9273L18.2304 76.9756C15.1962 75.6982 13.2605 73.5089 12.4231 70.4076C11.5857 67.3063 11.8785 64.4241 13.3017 61.7608C14.7133 59.055 9.62918 60.138 13.0278 59.2203C14.7271 58.7614 12.5148 60.2716 14.6262 60.1573L14.4581 58.7881L16.5597 61.3608L18.5017 61.5747C17.9086 59.547 19.4703 62.4282 17.7162 61.6712C15.9931 60.8602 20.6684 60.9897 18.5017 61.5747C16.3776 62.1483 17.3199 60.0149 16.2655 61.8493C15.1996 63.6413 14.9707 65.663 15.5787 67.9146C16.1752 70.1238 17.6088 71.7194 19.8795 72.7016L34.1807 78.8221C39.8518 81.2563 43.3929 85.0861 44.8038 90.3115C45.8592 94.2199 45.2148 97.9948 42.8706 101.636C40.848 104.78 37.6064 106.955 33.1457 108.159C30.4268 108.893 27.8676 109.037 25.4681 108.591C20.97 107.8 17.7094 105.262 15.6863 100.977C15.3753 100.332 15.0821 99.4992 14.8068 98.4796C14.52 97.4175 14.4331 95.914 14.5461 93.9691C14.6476 91.9818 15.3014 89.8453 16.5075 87.5597L17.2014 87.8509Z" fill="#A0A0A0"/>
<path d="M13.9285 81.6392C10.9794 86.8955 9.89726 92.2769 10.682 97.7835C11.6157 104.336 15.0941 109.031 21.1171 111.871C24.6314 113.575 28.4099 114.139 32.4527 113.563C36.5651 112.977 40.0058 111.669 42.7745 109.638C48.0033 105.906 50.4744 100.54 50.1881 93.5403C50.1882 93.0425 50.1536 92.5496 50.084 92.0617C49.7165 89.4827 48.5873 86.7989 46.6964 84.0102C44.8752 81.2117 42.1827 78.7862 38.6187 76.7338L17.6832 64.5691C13.1138 61.9489 10.4665 58.0946 9.74141 53.0063C9.01629 47.9179 10.0434 43.3978 12.8228 39.4458C15.5922 35.4241 15.5593 35.0158 21.1355 34.2211C23.9236 33.8238 19.6371 33.9909 23.0125 34.2211C22.466 30.8853 25.7273 36.4254 23.0892 34.8812C20.5109 33.2573 26.5673 35.6947 23.0125 36.2013C19.5273 36.698 19.5445 37.4567 17.5123 40.1643C15.4702 42.8022 14.7124 45.9683 15.2389 49.6626C15.7554 53.2871 17.7209 56.1007 21.1355 58.1032L42.6534 70.6116C51.1849 75.5831 56.0616 82.3556 57.2834 90.929C58.1972 97.3417 56.4378 103.211 52.0051 108.536C48.18 113.135 42.6081 115.956 35.2893 116.999C30.8283 117.635 26.736 117.365 23.0125 116.188C16.0234 114.055 11.3402 109.389 8.96288 102.189C8.59484 101.103 8.29162 99.7243 8.05323 98.0514C7.8049 96.3088 7.96005 93.9043 8.5187 90.8377C9.06741 87.7014 10.5223 84.436 12.8832 81.0414L13.9285 81.6392Z" fill="#6F6F6F"/>
<path d="M10.9189 75.2502C5.42715 82.4317 4.00141 86.2337 4.00141 94.5769C4.00141 104.504 8.17303 112.214 16.5163 117.706C21.3743 120.98 26.8661 122.617 32.9915 122.617C39.2225 122.617 44.6087 121.402 49.1499 118.973C57.7044 114.537 62.5097 107.092 63.5658 96.6364C63.6714 95.8971 63.7242 95.1578 63.7242 94.4185C63.7242 90.5109 62.6153 86.2865 60.3975 81.7453C58.2852 77.204 54.8001 73.0324 49.942 69.2304L21.4272 46.7354C15.1961 41.8773 12.0806 35.5934 12.0806 27.8839C12.0806 20.1743 14.5625 13.6793 19.5262 8.39873C24.4899 3.01259 31.1961 0.319519 39.645 0.319519C43.8694 0.319519 48.4635 0.847571 53.4272 1.90368L59.7638 1.90368L60.0806 21.3888H58.4965C58.3909 16.3195 56.5427 12.3591 52.9519 9.50764C49.4668 6.55055 45.0311 5.072 39.645 5.072C34.3645 5.072 29.9288 6.86738 26.3381 10.4581C22.7473 13.9433 20.9519 18.4845 20.9519 24.0819C20.9519 29.5736 23.2753 34.1677 27.9222 37.8641L57.2291 60.9928C68.8463 70.1809 74.6549 81.27 74.6549 94.2601C74.6549 103.976 70.8001 112.32 63.0905 119.29C56.4371 125.31 47.5658 128.32 36.4767 128.32C29.7176 128.32 23.6978 127.052 18.4173 124.518C8.48986 119.871 2.52286 111.95 0.516263 100.755C0.199431 99.0654 0.0410156 96.9532 0.0410156 94.4185C0.0410157 91.7783 0.78029 88.2403 2.25884 83.8047C4.00141 79.7656 5.26874 78.6826 9.49316 74.1413L10.9189 75.2502Z" fill="#424242"/>
</svg>
