<svg width="104" height="120" viewBox="0 0 104 120" fill="none" xmlns="http://www.w3.org/2000/svg">
<path fill-rule="evenodd" clip-rule="evenodd" d="M104 120V98.4129H91.7647V43.7263C91.7647 29.7542 88.1961 19.081 81.0588 11.7068C74.0143 4.23561 64.328 0 52 0C39.7647 0 30.0784 4.23561 22.9412 11.7068C15.8966 19.081 12.3743 29.7542 12.3743 43.7263V98.4129H0.139037L0 120H6.81283L6.95187 105.108H97.1872V120H104ZM84.5348 42.9986V98.4129H51.2387C50.639 97.8787 50.3301 97.0961 50.3301 96.0791C50.3301 94.7586 50.6307 94.362 53.4575 91.9514C58.9782 87.2432 59.9661 83.7274 58.0577 75.5831C56.6338 69.5067 56.3241 67.0774 56.9269 66.7224C57.1903 66.5673 57.7709 66.7199 58.1452 67.0099C58.2046 67.0521 58.4072 66.9843 58.296 66.7224C58.1973 66.4898 58.0924 66.1222 57.9808 65.7309C57.8841 65.3919 57.7824 65.0352 57.6751 64.733C56.7481 62.1239 56.5518 61.828 55.633 61.6536C55.1076 61.5542 54.212 61.5482 53.6426 61.6409C51.5301 61.985 50.5798 63.1178 48.6739 67.5647C46.3581 72.9677 45.3536 74.4827 43.1586 75.8838C42.2067 76.4914 40.5414 78.137 39.4578 79.5408C34.5416 85.91 33.8046 86.9303 32.9616 88.5326C32.4685 89.47 30.4449 92.1056 28.4653 94.3896C26.8118 96.2969 25.7358 97.5383 25.0301 98.4129H19.6043V42.9986C19.6043 31.2581 22.4314 22.38 28.0856 16.3642C33.7398 10.3484 41.7112 6.84 52 6.84C62.2888 6.84 70.2603 10.3484 75.9144 16.3642C81.6613 22.38 84.5348 31.2581 84.5348 42.9986Z" fill="white"/>
</svg>
