
+6<svg width="170" height="192" viewBox="0 0 170 192" fill="none" xmlns="http://www.w3.org/2000/svg">
<path d="M113.617 112.169V128.64H108.453V116.939H61.9055L61.8307 128.64H56.667L56.7418 112.169H63.3274V86.7537C63.3274 79.4994 65.2731 73.9593 69.1646 70.1334C73.1059 66.2578 78.4442 64.32 85.1794 64.32C91.9146 64.32 97.228 66.2578 101.119 70.1334C105.061 73.9593 107.031 79.4994 107.031 86.7537V112.169H113.617ZM101.494 112.169V86.232C101.494 80.6174 100.047 76.394 97.1531 73.5618C94.3094 70.68 90.3181 69.239 85.1794 69.239C79.9908 69.239 75.9497 70.68 73.056 73.5618C70.2123 76.394 68.7904 80.6174 68.7904 86.232V112.169H101.494Z" fill="#E0DFDF"/>
<path d="M94.3434 84.0559C93.6112 81.9211 93.4562 81.679 92.7306 81.5363C92.3156 81.455 91.6083 81.4501 91.1587 81.526C89.4903 81.8075 88.7398 82.7343 87.2346 86.3728C85.4057 90.7935 84.6124 92.0331 82.8789 93.1795C82.1271 93.6766 80.8119 95.0231 79.9561 96.1717C76.0736 101.383 75.4915 102.218 74.8257 103.529C74.4363 104.296 72.8382 106.452 71.2748 108.321C67.5407 112.783 67.5358 112.791 67.4334 114.064C67.334 115.3 67.49 115.407 69.8451 115.715C71.2058 115.893 71.9582 115.729 75.1629 114.554C79.4597 112.98 80.1092 112.856 81.6804 113.315C82.46 113.543 83.4067 113.547 84.6218 113.329C85.6071 113.152 86.5613 113.101 86.7421 113.216C87.3687 113.611 92.8866 113.226 93.366 112.752C93.8869 112.238 93.8431 112.226 91.6979 112.3C89.6394 112.37 88.5426 111.468 88.5426 109.703C88.5426 108.623 88.78 108.298 91.0125 106.326C95.3725 102.474 96.1527 99.5971 94.6456 92.9335C93.521 87.9617 93.2764 85.9741 93.7525 85.6836C93.9605 85.5567 94.3722 85.6471 94.6678 85.8844C95.141 86.264 95.1737 86.2385 94.9402 85.67C94.7947 85.3149 94.5259 84.5886 94.3434 84.0559Z" fill="#E0DFDF"/>
</svg>
