<svg width="66" height="68" viewBox="0 0 66 68" fill="none" xmlns="http://www.w3.org/2000/svg">
<path d="M65.6979 49.9465V67.0589H59.8236V54.9021H6.86961L6.78447 67.0589H0.910156L0.995291 49.9465H8.48717V23.5423C8.48717 16.0056 10.7007 10.2498 15.1277 6.27502C19.6115 2.24858 25.6844 0.235352 33.3466 0.235352C41.0087 0.235352 47.0533 2.24858 51.4803 6.27502C55.9641 10.2498 58.206 16.0056 58.206 23.5423V49.9465H65.6979ZM51.906 49.9465V23.0003C51.906 17.1671 50.2601 12.7793 46.9682 9.83688C43.7331 6.84285 39.1925 5.34584 33.3466 5.34584C27.4439 5.34584 22.8466 6.84285 19.5547 9.83688C16.3196 12.7793 14.702 17.1671 14.702 23.0003V49.9465H51.906Z" fill="#474747"/>
<path d="M43.7713 20.7394C42.9384 18.5215 42.7621 18.27 41.9366 18.1218C41.4645 18.0372 40.6598 18.0322 40.1483 18.111C38.2503 18.4035 37.3966 19.3664 35.6842 23.1465C33.6035 27.7393 32.7011 29.0271 30.729 30.2181C29.8738 30.7346 28.3775 32.1335 27.404 33.3268C22.9871 38.7409 22.3249 39.6082 21.5675 40.9702C21.1245 41.7671 19.3064 44.0075 17.5279 45.949C13.2799 50.585 13.2743 50.5928 13.1579 51.9159C13.0448 53.1998 13.2222 53.3104 15.9014 53.631C17.4494 53.8162 18.3054 53.6455 21.9511 52.425C26.8393 50.789 27.5781 50.6609 29.3656 51.1374C30.2525 51.3739 31.3294 51.3786 32.7118 51.1522C33.8327 50.9684 34.9182 50.9154 35.124 51.0342C35.8367 51.4453 42.114 51.0446 42.6594 50.5525C43.252 50.0186 43.2022 50.0062 40.7618 50.0827C38.42 50.1558 37.1722 49.2184 37.1722 47.3851C37.1722 46.2626 37.4423 45.9255 39.982 43.8763C44.942 39.8742 45.8297 36.8856 44.1151 29.9625C42.8357 24.7973 42.5575 22.7323 43.0991 22.4305C43.3357 22.2986 43.8041 22.3926 44.1404 22.6391C44.6787 23.0335 44.7159 23.007 44.4502 22.4164C44.2847 22.0474 43.9789 21.2928 43.7713 20.7394Z" fill="#474747"/>
</svg>
