<svg width="192" height="192" viewBox="0 0 192 192" fill="none" xmlns="http://www.w3.org/2000/svg">
<g opacity="0.92">
<rect width="192" height="192" fill="#ACACAC"/>
<path d="M29.115 107.45C26.955 107.45 25.115 106.98 23.595 106.04C22.075 105.09 20.91 103.77 20.1 102.08C19.3 100.39 18.9 98.43 18.9 96.2C18.9 93.97 19.3 92.01 20.1 90.32C20.91 88.63 22.075 87.315 23.595 86.375C25.115 85.425 26.955 84.95 29.115 84.95C31.605 84.95 33.665 85.58 35.295 86.84C36.935 88.1 38.075 89.795 38.715 91.925L35.535 92.78C35.115 91.27 34.365 90.085 33.285 89.225C32.215 88.365 30.825 87.935 29.115 87.935C27.585 87.935 26.31 88.28 25.29 88.97C24.27 89.66 23.5 90.625 22.98 91.865C22.47 93.105 22.215 94.55 22.215 96.2C22.205 97.85 22.455 99.295 22.965 100.535C23.485 101.775 24.255 102.74 25.275 103.43C26.305 104.12 27.585 104.465 29.115 104.465C30.825 104.465 32.215 104.035 33.285 103.175C34.365 102.305 35.115 101.12 35.535 99.62L38.715 100.475C38.075 102.605 36.935 104.3 35.295 105.56C33.665 106.82 31.605 107.45 29.115 107.45ZM46.5891 107.45C45.3891 107.45 44.3841 107.23 43.5741 106.79C42.7641 106.34 42.1491 105.75 41.7291 105.02C41.3191 104.28 41.1141 103.47 41.1141 102.59C41.1141 101.77 41.2591 101.05 41.5491 100.43C41.8391 99.81 42.2691 99.285 42.8391 98.855C43.4091 98.415 44.1091 98.06 44.9391 97.79C45.6591 97.58 46.4741 97.395 47.3841 97.235C48.2941 97.075 49.2491 96.925 50.2491 96.785C51.2591 96.645 52.2591 96.505 53.2491 96.365L52.1091 96.995C52.1291 95.725 51.8591 94.785 51.2991 94.175C50.7491 93.555 49.7991 93.245 48.4491 93.245C47.5991 93.245 46.8191 93.445 46.1091 93.845C45.3991 94.235 44.9041 94.885 44.6241 95.795L41.6991 94.895C42.0991 93.505 42.8591 92.4 43.9791 91.58C45.1091 90.76 46.6091 90.35 48.4791 90.35C49.9291 90.35 51.1891 90.6 52.2591 91.1C53.3391 91.59 54.1291 92.37 54.6291 93.44C54.8891 93.97 55.0491 94.53 55.1091 95.12C55.1691 95.71 55.1991 96.345 55.1991 97.025V107H52.4241V103.295L52.9641 103.775C52.2941 105.015 51.4391 105.94 50.3991 106.55C49.3691 107.15 48.0991 107.45 46.5891 107.45ZM47.1441 104.885C48.0341 104.885 48.7991 104.73 49.4391 104.42C50.0791 104.1 50.5941 103.695 50.9841 103.205C51.3741 102.715 51.6291 102.205 51.7491 101.675C51.9191 101.195 52.0141 100.655 52.0341 100.055C52.0641 99.455 52.0791 98.975 52.0791 98.615L53.0991 98.99C52.1091 99.14 51.2091 99.275 50.3991 99.395C49.5891 99.515 48.8541 99.635 48.1941 99.755C47.5441 99.865 46.9641 100 46.4541 100.16C46.0241 100.31 45.6391 100.49 45.2991 100.7C44.9691 100.91 44.7041 101.165 44.5041 101.465C44.3141 101.765 44.2191 102.13 44.2191 102.56C44.2191 102.98 44.3241 103.37 44.5341 103.73C44.7441 104.08 45.0641 104.36 45.4941 104.57C45.9241 104.78 46.4741 104.885 47.1441 104.885ZM65.2891 107.435C63.3191 107.435 61.7141 107 60.4741 106.13C59.2341 105.26 58.4741 104.035 58.1941 102.455L61.4041 101.96C61.6041 102.8 62.0641 103.465 62.7841 103.955C63.5141 104.435 64.4191 104.675 65.4991 104.675C66.4791 104.675 67.2441 104.475 67.7941 104.075C68.3541 103.675 68.6341 103.125 68.6341 102.425C68.6341 102.015 68.5341 101.685 68.3341 101.435C68.1441 101.175 67.7391 100.93 67.1191 100.7C66.4991 100.47 65.5541 100.185 64.2841 99.845C62.8941 99.485 61.7891 99.1 60.9691 98.69C60.1591 98.27 59.5791 97.785 59.2291 97.235C58.8891 96.675 58.7191 96 58.7191 95.21C58.7191 94.23 58.9791 93.375 59.4991 92.645C60.0191 91.915 60.7491 91.35 61.6891 90.95C62.6391 90.55 63.7491 90.35 65.0191 90.35C66.2591 90.35 67.3641 90.545 68.3341 90.935C69.3041 91.325 70.0891 91.88 70.6891 92.6C71.2891 93.31 71.6491 94.145 71.7691 95.105L68.5591 95.69C68.4491 94.91 68.0841 94.295 67.4641 93.845C66.8441 93.395 66.0391 93.15 65.0491 93.11C64.0991 93.07 63.3291 93.23 62.7391 93.59C62.1491 93.94 61.8541 94.425 61.8541 95.045C61.8541 95.405 61.9641 95.71 62.1841 95.96C62.4141 96.21 62.8541 96.45 63.5041 96.68C64.1541 96.91 65.1141 97.185 66.3841 97.505C67.7441 97.855 68.8241 98.245 69.6241 98.675C70.4241 99.095 70.9941 99.6 71.3341 100.19C71.6841 100.77 71.8591 101.475 71.8591 102.305C71.8591 103.905 71.2741 105.16 70.1041 106.07C68.9441 106.98 67.3391 107.435 65.2891 107.435ZM86.5481 107V99.035C86.5481 98.405 86.4931 97.76 86.3831 97.1C86.2831 96.43 86.0831 95.81 85.7831 95.24C85.4931 94.67 85.0781 94.21 84.5381 93.86C84.0081 93.51 83.3131 93.335 82.4531 93.335C81.8931 93.335 81.3631 93.43 80.8631 93.62C80.3631 93.8 79.9231 94.095 79.5431 94.505C79.1731 94.915 78.8781 95.455 78.6581 96.125C78.4481 96.795 78.3431 97.61 78.3431 98.57L76.3931 97.835C76.3931 96.365 76.6681 95.07 77.2181 93.95C77.7681 92.82 78.5581 91.94 79.5881 91.31C80.6181 90.68 81.8631 90.365 83.3231 90.365C84.4431 90.365 85.3831 90.545 86.1431 90.905C86.9031 91.265 87.5181 91.74 87.9881 92.33C88.4681 92.91 88.8331 93.545 89.0831 94.235C89.3331 94.925 89.5031 95.6 89.5931 96.26C89.6831 96.92 89.7281 97.5 89.7281 98V107H86.5481ZM75.1631 107V85.4H77.9681V97.055H78.3431V107H75.1631Z" fill="white"/>
<path d="M105.647 107V85.4H114.137C115.507 85.4 116.657 85.68 117.587 86.24C118.517 86.8 119.217 87.525 119.687 88.415C120.157 89.295 120.392 90.225 120.392 91.205C120.392 92.395 120.097 93.415 119.507 94.265C118.927 95.115 118.142 95.695 117.152 96.005L117.122 95.27C118.502 95.61 119.562 96.275 120.302 97.265C121.042 98.245 121.412 99.39 121.412 100.7C121.412 101.97 121.157 103.075 120.647 104.015C120.147 104.955 119.412 105.69 118.442 106.22C117.482 106.74 116.317 107 114.947 107H105.647ZM108.827 104.015H114.467C115.177 104.015 115.812 103.88 116.372 103.61C116.942 103.34 117.387 102.955 117.707 102.455C118.037 101.945 118.202 101.34 118.202 100.64C118.202 99.99 118.057 99.405 117.767 98.885C117.487 98.355 117.077 97.94 116.537 97.64C116.007 97.33 115.382 97.175 114.662 97.175H108.827V104.015ZM108.827 94.22H114.092C114.672 94.22 115.192 94.105 115.652 93.875C116.122 93.635 116.492 93.295 116.762 92.855C117.042 92.405 117.182 91.865 117.182 91.235C117.182 90.395 116.902 89.705 116.342 89.165C115.782 88.625 115.032 88.355 114.092 88.355H108.827V94.22ZM131.432 107.45C129.812 107.45 128.407 107.085 127.217 106.355C126.027 105.625 125.107 104.62 124.457 103.34C123.817 102.05 123.497 100.565 123.497 98.885C123.497 97.195 123.827 95.71 124.487 94.43C125.147 93.14 126.072 92.14 127.262 91.43C128.452 90.71 129.842 90.35 131.432 90.35C133.052 90.35 134.457 90.715 135.647 91.445C136.837 92.175 137.757 93.18 138.407 94.46C139.057 95.74 139.382 97.215 139.382 98.885C139.382 100.575 139.052 102.065 138.392 103.355C137.742 104.635 136.822 105.64 135.632 106.37C134.442 107.09 133.042 107.45 131.432 107.45ZM131.432 104.495C132.982 104.495 134.137 103.975 134.897 102.935C135.667 101.885 136.052 100.535 136.052 98.885C136.052 97.195 135.662 95.845 134.882 94.835C134.112 93.815 132.962 93.305 131.432 93.305C130.382 93.305 129.517 93.545 128.837 94.025C128.157 94.495 127.652 95.15 127.322 95.99C126.992 96.82 126.827 97.785 126.827 98.885C126.827 100.585 127.217 101.945 127.997 102.965C128.777 103.985 129.922 104.495 131.432 104.495ZM149.713 107.45C148.093 107.45 146.688 107.085 145.498 106.355C144.308 105.625 143.388 104.62 142.738 103.34C142.098 102.05 141.778 100.565 141.778 98.885C141.778 97.195 142.108 95.71 142.768 94.43C143.428 93.14 144.353 92.14 145.543 91.43C146.733 90.71 148.123 90.35 149.713 90.35C151.333 90.35 152.738 90.715 153.928 91.445C155.118 92.175 156.038 93.18 156.688 94.46C157.338 95.74 157.663 97.215 157.663 98.885C157.663 100.575 157.333 102.065 156.673 103.355C156.023 104.635 155.103 105.64 153.913 106.37C152.723 107.09 151.323 107.45 149.713 107.45ZM149.713 104.495C151.263 104.495 152.418 103.975 153.178 102.935C153.948 101.885 154.333 100.535 154.333 98.885C154.333 97.195 153.943 95.845 153.163 94.835C152.393 93.815 151.243 93.305 149.713 93.305C148.663 93.305 147.798 93.545 147.118 94.025C146.438 94.495 145.933 95.15 145.603 95.99C145.273 96.82 145.108 97.785 145.108 98.885C145.108 100.585 145.498 101.945 146.278 102.965C147.058 103.985 148.203 104.495 149.713 104.495ZM160.944 107L160.959 85.4H164.139V98.6L170.499 90.8H174.489L167.769 98.9L175.179 107H170.919L164.139 99.2V107H160.944Z" fill="#202222"/>
</g>
</svg>
