<svg width="244" height="128" viewBox="0 0 244 128" fill="none" xmlns="http://www.w3.org/2000/svg">
<path fillRule="evenodd" clipRule="evenodd" d="M242.045 6.18016C240.796 6.3529 239.387 7.01212 238.356 7.90649C237.552 8.60427 237.256 8.57417 237.4 7.80984C237.605 6.73044 235.744 7.94484 234.898 9.44351C234.471 10.1989 234.385 10.2627 234.149 9.99627C233.918 9.7345 233.714 9.8688 232.577 11.0319C231.858 11.7668 231.032 12.7582 230.74 13.2347L230.211 14.1011L230.015 12.4004C229.626 9.03857 230.226 3.02573 231.144 1.07561C231.35 0.639383 231.309 0.562403 230.899 0.616484C230.205 0.708509 227.877 2.33871 226.58 3.64104C225.778 4.44632 225.404 4.69709 225.186 4.57499C224.943 4.43908 224.765 4.60102 224.232 5.44645C223.872 6.0175 223.406 6.99054 223.196 7.60898C222.823 8.70997 222.807 8.72864 222.433 8.51916C221.873 8.20634 221.63 8.65684 221.516 10.2219C221.43 11.39 221.344 11.6109 220.978 11.6018C220.41 11.5876 220.102 12.4318 220.133 13.9172C220.154 14.8672 220.101 14.9912 219.682 14.9809C218.954 14.9625 218.884 15.2368 219.374 16.1912C219.622 16.6733 219.711 17.207 219.572 17.3772C219.433 17.5475 219.418 17.815 219.539 17.972C219.659 18.1288 219.608 18.3912 219.426 18.555C219.174 18.7807 219.24 18.9555 219.698 19.2766C220.152 19.595 220.228 19.7911 220.004 20.0642C219.839 20.2644 219.795 20.4785 219.905 20.5403C220.016 20.6021 220.002 20.7794 219.875 20.9343C219.564 21.3116 220.281 21.686 221.325 21.6909C222.336 21.6955 222.419 21.9024 221.613 22.4089C220.963 22.8173 220.809 22.7903 218.267 21.8205C217.346 21.4692 216.445 21.2131 216.266 21.2512C215.865 21.3364 215.38 23.0117 215.542 23.7566C215.636 24.1901 215.777 24.2952 216.345 24.3512C217.376 24.4529 217.563 24.6469 216.814 24.8388C216.248 24.9838 216.147 25.082 216.142 25.4909C216.131 26.334 216.575 29.3708 216.721 29.4524C216.798 29.4955 217.348 29.2171 217.944 28.8338C220.952 26.8975 222.465 26.093 223.144 26.0689C223.546 26.0546 224.957 26.2298 226.28 26.4581C227.603 26.6865 229.178 26.9007 229.78 26.9342C232.028 27.0589 234.415 26.112 236.288 24.3526C237.345 23.3599 237.79 23.1811 238.866 23.316L239.644 23.4137L239.289 22.8005C239.095 22.4632 238.909 21.9134 238.878 21.5787C238.76 20.3356 236.848 19.9214 234.828 20.7013C233.183 21.3366 232.736 21.1969 234.101 20.4739C235.868 19.5378 237.897 17.1295 239.148 14.4837C239.702 13.3117 240.31 11.7396 240.5 10.9902C240.712 10.1499 241.284 8.93758 241.99 7.82841L243.135 6.02938L242.045 6.18016ZM193.894 37.3632C192.302 37.0258 191.169 37.0344 190.092 37.3918C188.84 37.8071 186.412 39.1258 186.378 39.408C186.365 39.5237 186.665 39.7923 187.045 40.0049C187.87 40.466 187.702 40.8328 186.78 40.5823C186.203 40.4253 184.447 39.1167 183.537 38.1647C183.255 37.8702 183.081 37.9292 182.243 38.6039C181.71 39.0325 181.099 39.4917 180.886 39.6243C180.604 39.7995 180.607 39.9595 180.897 40.21L181.296 40.5546L180.823 40.3274C180.478 40.162 180.254 40.2171 179.996 40.5299C179.449 41.1951 179.153 43.0667 179.524 43.5188C179.79 43.843 180.119 43.8805 181.156 43.7058C182.815 43.4264 186.348 43.4535 186.876 43.7495C187.099 43.8745 187.595 44.6369 187.98 45.4441C188.414 46.3555 188.806 46.8861 189.014 46.8438C189.516 46.7419 189.644 46.8857 189.439 47.3222C189.291 47.6358 189.613 48.0077 191.035 49.1668C192.761 50.5744 193.688 51.6991 193.404 52.0438C193.105 52.4075 193.615 55.411 194.289 57.2527C194.68 58.3219 195.506 60.0712 196.125 61.1399C196.744 62.2084 197.374 63.5758 197.526 64.1788C197.677 64.7814 197.883 65.2572 197.983 65.236C198.475 65.1315 199.234 59.923 199.8 52.7583C200.05 49.5977 200.008 48.8805 199.497 47.6185C199.171 46.8119 198.814 46.0415 198.706 45.9063C198.366 45.4848 199.425 45.1825 200.541 45.3828L201.554 45.5646L201.673 44.1672C201.868 41.8523 200.842 41.1809 197.903 41.7011C196.404 41.9667 195.769 41.8128 195.366 41.0859C195.176 40.7444 195.27 40.5552 195.95 39.9115C196.707 39.1946 196.735 39.1115 196.376 38.6485C195.883 38.0112 195.142 37.6276 193.894 37.3632ZM159.613 19.5291C158.271 20.0819 154.915 23.3641 154.038 24.9804C153.649 25.6987 152.82 26.6971 151.425 28.1282C149.786 29.8097 149.359 30.3446 149.266 30.8328C149.169 31.3465 149.023 31.5104 148.329 31.8825C147.562 32.2939 147.446 32.4526 146.592 34.2654C146.089 35.3339 145.434 36.9225 145.136 37.7961C144.539 39.5456 143.875 40.2888 142.852 40.3524C142.328 40.3851 142.051 40.2122 140.881 39.1212C140.133 38.4231 139.443 37.8058 139.35 37.7495C139.255 37.6931 138.796 38.183 138.328 38.8378C137.412 40.1202 137.41 40.5787 138.318 40.826C138.951 40.9981 138.848 41.2366 138.116 41.2949C137.671 41.3304 137.558 41.4502 137.251 42.2121C136.654 43.6922 136.225 45.3173 136.405 45.4175C136.498 45.47 137.735 45.1698 139.152 44.7504C140.57 44.3311 142.087 44.0073 142.525 44.031C143.068 44.0605 143.975 44.4382 145.393 45.2264C149.071 47.2708 150.585 47.4255 153.935 46.0982C155.72 45.3908 156.11 45.3178 156.709 45.579C157.462 45.907 157.717 45.7939 157.557 45.2037C157.501 44.9984 157.548 44.5264 157.661 44.1552C157.896 43.3836 157.339 42.4516 156.509 42.2259C156.199 42.1416 155.391 42.1357 154.714 42.2128C152.779 42.4335 152.671 42.2268 154.014 40.8746C154.637 40.2468 155.991 39.122 157.022 38.3752C158.053 37.6285 159.085 36.7812 159.316 36.4924C159.547 36.2035 159.954 34.7687 160.22 33.304C160.824 29.9865 161.114 28.8623 161.858 26.9503C162.533 25.2161 162.493 24.8382 161.702 25.4836C161.396 25.7335 161.007 26.0455 160.838 26.1768C160.145 26.7135 155.832 31.0413 154.871 32.1629C154.253 32.8845 154.762 32.0689 156.14 30.1305C157.405 28.3498 158.615 26.5589 158.829 26.1504C159.37 25.1156 160.716 19.5288 160.459 19.3851C160.343 19.3203 159.962 19.385 159.613 19.5291ZM124.667 55.1516C124.207 55.099 123.573 55.1482 123.258 55.2606C122.943 55.3732 121.816 55.3187 120.753 55.1395C116.111 54.3566 111.927 54.9499 105.593 57.2901C103.551 58.0448 100.508 58.6112 98.7191 58.5696C97.9843 58.5526 98.3856 58.7986 99.3373 58.9484L100.064 59.0631L99.1842 59.274C98.4454 59.4511 98.3591 59.5161 98.6483 59.6777C98.8375 59.7835 99.52 59.9046 100.165 59.9468C100.809 59.9888 101.132 60.0709 100.883 60.1291C100.286 60.2681 100.115 60.4975 100.463 60.692C100.85 60.9086 102.906 60.325 104.242 59.6187C105.064 59.1844 105.661 59.0569 106.55 59.1259C108.297 59.2615 108.67 59.7248 109.03 62.2059C109.2 63.3777 109.48 64.3345 109.653 64.3323C109.826 64.3301 109.897 64.4152 109.809 64.5215C109.722 64.6276 109.826 64.7415 110.041 64.7748C110.295 64.8142 110.338 64.9484 110.164 65.1599C109.954 65.4151 109.994 65.4718 110.352 65.4245C110.704 65.3779 110.779 65.4477 110.684 65.7324C110.601 65.9787 110.727 66.1356 111.062 66.2064C111.424 66.2828 111.493 66.3972 111.31 66.619C111.125 66.844 111.196 66.9552 111.575 67.0352C111.967 67.1178 112.041 67.2545 111.88 67.5981C111.643 68.1028 111.924 68.3641 112.56 68.229C112.881 68.161 113.007 68.2724 113.101 68.7063C113.205 69.1876 113.303 69.2614 113.759 69.2013C114.222 69.1399 114.291 69.2286 114.272 69.8616C114.243 70.8445 114.694 71.0634 115.281 70.3505L115.742 69.7897L115.853 70.8748C115.981 72.1365 116.313 72.1964 116.767 71.0401C117.231 69.8557 117.524 69.9563 117.664 71.3482C117.801 72.7097 118.158 73.1406 118.493 72.3476C118.608 72.0732 118.786 71.6494 118.887 71.4058C119.046 71.0243 119.103 71.0848 119.302 71.8434C119.693 73.3323 120.258 73.1793 120.265 71.5824C120.27 70.5524 120.334 70.5612 121.776 71.7911C122.417 72.3385 122.957 72.6426 123.416 72.7151C124.298 72.8539 124.5 72.5923 123.935 72.0428C123.189 71.3166 121.009 68.0228 121.156 67.8436C121.334 67.6271 121.336 67.6282 122.067 68.5196C122.908 69.5461 123.185 69.6534 122.957 68.8639L122.766 68.2045L123.688 68.8668C124.6 69.5221 124.605 69.5228 124.231 68.919L123.853 68.3092L124.401 68.603C125.442 69.1617 125.431 68.6872 124.385 67.9235C123.358 67.1738 122.629 66.2622 123.339 66.6158C123.511 66.7012 123.373 66.3879 123.032 65.9192C121.772 64.1854 120.545 61.1293 120.919 60.6549C121.03 60.514 121.475 60.2697 121.909 60.112C122.343 59.9543 123.082 59.5983 123.551 59.3209C124.353 58.846 125.203 58.8017 126.294 59.1779C126.625 59.292 126.702 59.0959 126.789 57.9132C126.926 56.0505 126.386 55.3476 124.667 55.1516Z" fill="#424242"/>
<path d="M23.3307 105.391C23.5649 105.087 24.1905 104.662 24.721 104.446C26.7015 103.64 27.8793 104.063 29.3487 106.106C30.2818 107.403 30.3708 107.655 29.9231 107.729C28.4481 107.975 27.591 108.523 27.1572 109.495C26.9035 110.064 26.4342 110.874 26.1138 111.295C25.7934 111.717 25.5355 112.237 25.5407 112.45C25.5583 113.17 29.4989 115.666 32.3283 116.751C33.093 117.044 33.5101 117.293 33.2552 117.304C32.2004 117.35 33.7579 117.881 35.4894 118.066C37.2532 118.254 37.6762 118.747 36.0949 118.772L35.2635 118.785L36.1904 119.205C37.1077 119.62 37.1012 119.623 35.5725 119.47L34.0277 119.315L34.8001 119.897C35.7251 120.594 35.3401 120.644 33.5642 120.059C32.0219 119.55 32.0194 119.55 32.0194 119.883C32.0194 120.158 37.1695 122.344 38.5849 122.669C39.6564 122.915 39.6703 123.31 38.621 123.683C38.0751 123.877 37.2427 123.874 36.0925 123.676C33.508 123.229 33.4332 123.258 34.3209 124.345C35.697 126.031 35.2342 126.526 33.5324 125.187C32.6654 124.505 32.5527 124.475 32.7161 124.971C32.8205 125.287 33.0007 125.838 33.1165 126.195C33.4514 127.227 32.7016 126.984 31.378 125.63C30.0247 124.246 29.6286 124.313 30.1656 125.834C30.6899 127.319 30.2883 127.452 29.0595 126.198L28.0028 125.121L28.0028 125.983C28.0028 127.079 27.3376 127.114 26.517 126.062C25.9887 125.384 25.8392 125.331 25.4041 125.668C24.9765 126 24.8091 125.98 24.2823 125.534C23.8074 125.133 23.5778 125.09 23.2992 125.35C22.7464 125.867 22.2237 125.757 22.0358 125.086C21.9079 124.629 21.7117 124.529 21.2273 124.673C20.7586 124.812 20.5877 124.736 20.5877 124.39C20.5877 124.049 20.4159 123.969 19.9682 124.102C19.5539 124.225 19.286 124.133 19.1597 123.825C19.0135 123.469 18.8739 123.44 18.5433 123.696C18.2074 123.957 18.116 123.921 18.116 123.528C18.116 123.203 17.9544 123.087 17.6525 123.195C17.3976 123.287 17.1891 123.228 17.1891 123.065C17.1891 122.901 17.0414 122.853 16.861 122.957C16.6805 123.062 15.5559 122.219 14.3614 121.085C11.8326 118.683 11.0382 118.415 9.08063 119.301C8.08452 119.752 7.56638 120.237 7.07698 121.179C6.2814 122.71 4.62194 124.535 4.02595 124.535C3.49113 124.535 3.4726 124.192 3.98085 123.694C4.19342 123.486 3.78157 123.59 3.06632 123.925C2.35076 124.26 1.52705 124.535 1.23601 124.535C0.791406 124.535 0.826005 124.415 1.45073 123.794L2.19503 123.053L1.32994 123.361C0.19758 123.763 -0.43827 123.741 0.350517 123.326C2.27042 122.317 4.9856 119.928 6.48284 117.93C11.1269 111.736 15.0195 108.647 20.5877 106.738C21.8622 106.301 23.0965 105.695 23.3307 105.391Z" fill="#424242"/>
</svg>
