<svg width="264" height="162" viewBox="0 0 264 162" fill="none" xmlns="http://www.w3.org/2000/svg">
<path fill-rule="evenodd" clip-rule="evenodd" d="M244.245 40.0645C242.992 40.2377 241.58 40.8985 240.547 41.7952C239.74 42.4947 239.443 42.4645 239.589 41.6983C239.794 40.6161 237.928 41.8336 237.08 43.3361C236.651 44.0934 236.565 44.1573 236.329 43.8902C236.097 43.6278 235.893 43.7624 234.753 44.9285C234.032 45.6652 233.204 46.6591 232.912 47.1368L232.381 48.0054L232.184 46.3005C231.795 42.9301 232.397 36.9021 233.317 34.947C233.523 34.5097 233.482 34.4325 233.071 34.4868C232.375 34.579 230.041 36.2133 228.741 37.519C227.937 38.3263 227.562 38.5777 227.343 38.4553C227.099 38.319 226.922 38.4813 226.387 39.3289C226.026 39.9014 225.559 40.8769 225.349 41.4969C224.974 42.6007 224.959 42.6194 224.583 42.4094C224.022 42.0958 223.779 42.5474 223.664 44.1165C223.578 45.2875 223.492 45.5089 223.125 45.4999C222.555 45.4856 222.247 46.3319 222.278 47.821C222.298 48.7734 222.245 48.8978 221.826 48.8874C221.096 48.869 221.026 49.144 221.517 50.1008C221.765 50.5841 221.854 51.1191 221.715 51.2898C221.576 51.4606 221.561 51.7287 221.682 51.8861C221.803 52.0433 221.752 52.3063 221.568 52.4706C221.316 52.6968 221.383 52.8721 221.842 53.194C222.297 53.5132 222.373 53.7098 222.148 53.9836C221.983 54.1843 221.939 54.3989 222.049 54.4609C222.16 54.5228 222.146 54.7006 222.019 54.8559C221.707 55.2341 222.426 55.6094 223.472 55.6144C224.486 55.619 224.57 55.8264 223.762 56.3342C223.11 56.7437 222.955 56.7165 220.406 55.7443C219.483 55.3921 218.581 55.1354 218.401 55.1736C217.998 55.259 217.513 56.9385 217.675 57.6853C217.769 58.1199 217.911 58.2252 218.481 58.2814C219.514 58.3833 219.701 58.5779 218.951 58.7702C218.383 58.9156 218.282 59.014 218.276 59.424C218.266 60.2692 218.711 63.3137 218.857 63.3954C218.934 63.4387 219.486 63.1595 220.083 62.7753C223.099 60.8341 224.616 60.0276 225.296 60.0034C225.699 59.9891 227.114 60.1647 228.44 60.3936C229.766 60.6226 231.345 60.8373 231.949 60.871C234.203 60.9959 236.596 60.0466 238.474 58.2828C239.533 57.2876 239.979 57.1083 241.058 57.2436L241.838 57.3415L241.482 56.7267C241.287 56.3886 241.101 55.8375 241.07 55.5019C240.952 54.2557 239.034 53.8405 237.009 54.6223C235.36 55.2592 234.913 55.1191 236.281 54.3943C238.052 53.4558 240.086 51.0414 241.34 48.389C241.896 47.214 242.506 45.638 242.696 44.8866C242.909 44.0443 243.482 42.8289 244.189 41.7169L245.338 39.9133L244.245 40.0645ZM195.972 71.3262C194.377 70.988 193.241 70.9966 192.161 71.3549C190.906 71.7713 188.471 73.0933 188.438 73.3762C188.424 73.4922 188.725 73.7615 189.106 73.9746C189.933 74.4369 189.764 74.8046 188.841 74.5535C188.262 74.3961 186.501 73.0841 185.589 72.1298C185.306 71.8346 185.133 71.8937 184.292 72.5701C183.757 72.9998 183.145 73.4602 182.932 73.593C182.649 73.7687 182.652 73.9291 182.943 74.1802L183.342 74.5257L182.868 74.298C182.523 74.1322 182.297 74.1873 182.039 74.501C181.491 75.1679 181.195 77.0441 181.566 77.4974C181.833 77.8224 182.162 77.86 183.203 77.6849C184.865 77.4048 188.408 77.4319 188.937 77.7287C189.16 77.854 189.658 78.6183 190.043 79.4276C190.479 80.3413 190.872 80.8731 191.08 80.8308C191.583 80.7286 191.711 80.8728 191.506 81.3104C191.358 81.6247 191.681 81.9976 193.106 83.1596C194.837 84.5708 195.765 85.6984 195.481 86.0439C195.181 86.4086 195.693 89.4196 196.368 91.2659C196.76 92.3379 197.589 94.0916 198.209 95.163C198.829 96.2342 199.461 97.6051 199.613 98.2095C199.765 98.8137 199.972 99.2906 200.072 99.2694C200.565 99.1646 201.325 93.943 201.894 86.7602C202.144 83.5916 202.102 82.8726 201.59 81.6074C201.262 80.7988 200.905 80.0264 200.796 79.8909C200.456 79.4683 201.517 79.1653 202.636 79.3661L203.652 79.5483L203.771 78.1475C203.967 75.8267 202.938 75.1535 199.992 75.6751C198.488 75.9414 197.853 75.7871 197.448 75.0584C197.258 74.716 197.352 74.5263 198.033 73.881C198.792 73.1623 198.82 73.079 198.461 72.6148C197.966 71.9759 197.224 71.5914 195.972 71.3262ZM161.605 53.4472C160.26 54.0013 156.895 57.2918 156.016 58.9122C155.626 59.6323 154.795 60.6332 153.396 62.068C151.753 63.7537 151.325 64.2899 151.232 64.7794C151.135 65.2943 150.988 65.4586 150.292 65.8317C149.523 66.2441 149.407 66.4033 148.551 68.2207C148.047 69.2918 147.39 70.8845 147.091 71.7603C146.493 73.5142 145.827 74.2593 144.801 74.323C144.276 74.3558 143.999 74.1825 142.826 73.0887C142.075 72.3888 141.384 71.77 141.29 71.7135C141.196 71.6569 140.735 72.1481 140.266 72.8046C139.348 74.0903 139.346 74.5499 140.256 74.7977C140.891 74.9703 140.788 75.2095 140.054 75.2678C139.607 75.3035 139.494 75.4235 139.186 76.1874C138.588 77.6712 138.158 79.3005 138.338 79.4009C138.432 79.4535 139.671 79.1525 141.093 78.7321C142.514 78.3118 144.035 77.9872 144.473 78.0109C145.018 78.0405 145.927 78.4191 147.349 79.2093C151.037 81.2589 152.554 81.4139 155.912 80.0833C157.702 79.3741 158.093 79.301 158.694 79.5628C159.448 79.8916 159.704 79.7782 159.544 79.1865C159.488 78.9807 159.535 78.5075 159.648 78.1354C159.883 77.3618 159.326 76.4275 158.493 76.2012C158.182 76.1167 157.372 76.1108 156.694 76.1881C154.754 76.4094 154.645 76.2021 155.991 74.8465C156.616 74.2171 157.974 73.0895 159.007 72.3408C160.041 71.5922 161.076 70.7428 161.307 70.4533C161.539 70.1636 161.947 68.7252 162.214 67.2568C162.819 63.9309 163.11 62.8039 163.855 60.887C164.532 59.1485 164.492 58.7696 163.699 59.4167C163.393 59.6672 163.003 59.9799 162.833 60.1116C162.139 60.6496 157.814 64.9884 156.851 66.1128C156.231 66.8362 156.742 66.0186 158.123 64.0753C159.391 62.2901 160.605 60.4946 160.819 60.0851C161.361 59.0477 162.71 53.4468 162.453 53.3028C162.337 53.2378 161.955 53.3027 161.605 53.4472ZM126.571 89.1595C126.11 89.1068 125.474 89.1561 125.158 89.2689C124.842 89.3817 123.712 89.3271 122.647 89.1474C117.993 88.3625 113.799 88.9574 107.449 91.3035C105.402 92.0601 102.35 92.6279 100.557 92.5862C99.8205 92.5691 100.223 92.8157 101.177 92.966L101.906 93.0809L101.023 93.2924C100.283 93.4699 100.196 93.535 100.486 93.6971C100.676 93.8032 101.36 93.9245 102.006 93.9669C102.652 94.009 102.977 94.0913 102.726 94.1496C102.128 94.289 101.956 94.519 102.305 94.7139C102.694 94.9311 104.754 94.3461 106.094 93.638C106.918 93.2026 107.516 93.0747 108.408 93.1439C110.159 93.2799 110.533 93.7443 110.894 96.2317C111.064 97.4064 111.345 98.3657 111.519 98.3635C111.693 98.3613 111.763 98.4465 111.675 98.5531C111.588 98.6595 111.692 98.7737 111.908 98.8071C112.162 98.8465 112.205 98.9811 112.031 99.1931C111.821 99.449 111.861 99.5058 112.22 99.4584C112.573 99.4117 112.648 99.4816 112.552 99.767C112.469 100.014 112.595 100.171 112.931 100.242C113.294 100.319 113.363 100.434 113.18 100.656C112.995 100.882 113.066 100.993 113.446 101.073C113.839 101.156 113.913 101.293 113.751 101.637C113.514 102.144 113.796 102.405 114.433 102.27C114.755 102.202 114.881 102.313 114.975 102.748C115.08 103.231 115.178 103.305 115.635 103.245C116.1 103.183 116.169 103.272 116.15 103.907C116.12 104.892 116.573 105.112 117.161 104.397L117.623 103.835L117.734 104.922C117.863 106.187 118.196 106.247 118.65 105.088C119.116 103.901 119.41 104.002 119.55 105.397C119.687 106.762 120.045 107.194 120.381 106.399C120.497 106.124 120.675 105.699 120.776 105.455C120.935 105.072 120.993 105.133 121.192 105.893C121.584 107.386 122.151 107.233 122.158 105.632C122.163 104.599 122.226 104.608 123.672 105.841C124.315 106.39 124.857 106.695 125.317 106.767C126.201 106.907 126.403 106.644 125.837 106.093C125.088 105.365 122.903 102.063 123.051 101.884C123.229 101.667 123.231 101.668 123.964 102.561C124.807 103.59 125.085 103.698 124.856 102.906L124.665 102.245L125.589 102.909C126.503 103.566 126.509 103.567 126.134 102.962L125.754 102.35L126.304 102.645C127.348 103.205 127.337 102.729 126.288 101.964C125.258 101.212 124.527 100.298 125.24 100.653C125.412 100.738 125.273 100.424 124.932 99.9544C123.669 98.2162 122.438 95.1523 122.813 94.6767C122.924 94.5355 123.371 94.2906 123.806 94.1325C124.241 93.9744 124.981 93.6175 125.451 93.3394C126.256 92.8632 127.108 92.8188 128.202 93.196C128.534 93.3104 128.611 93.1138 128.698 91.9282C128.836 90.0608 128.294 89.3561 126.571 89.1595Z" fill="#3D3C3C"/>
<path d="M23.6454 139.526C23.8802 139.221 24.5075 138.795 25.0393 138.579C27.0248 137.771 28.2055 138.194 29.6786 140.242C30.6141 141.543 30.7033 141.795 30.2545 141.87C28.7758 142.117 27.9165 142.665 27.4816 143.641C27.2273 144.21 26.7568 145.022 26.4356 145.445C26.1144 145.868 25.8558 146.389 25.861 146.603C25.8787 147.324 29.8292 149.827 32.6658 150.914C33.4324 151.208 33.8506 151.457 33.5951 151.469C32.5376 151.515 34.099 152.047 35.8348 152.232C37.6032 152.421 38.0272 152.916 36.4419 152.941L35.6084 152.954L36.5376 153.374C37.4573 153.791 37.4508 153.793 35.9181 153.64L34.3694 153.485L35.1438 154.069C36.0712 154.767 35.6852 154.817 33.9048 154.23C32.3586 153.721 32.3561 153.72 32.3561 154.054C32.3561 154.33 37.5192 156.522 38.9382 156.848C40.0124 157.094 40.0263 157.49 38.9744 157.864C38.4271 158.058 37.5926 158.056 36.4395 157.857C33.8484 157.409 33.7735 157.438 34.6634 158.528C36.043 160.218 35.579 160.714 33.8729 159.372C33.0038 158.689 32.8907 158.658 33.0546 159.155C33.1593 159.472 33.3398 160.024 33.456 160.382C33.7918 161.417 33.04 161.173 31.7131 159.816C30.3564 158.429 29.9593 158.496 30.4976 160.021C31.0233 161.509 30.6206 161.642 29.3887 160.386L28.3294 159.305L28.3294 160.17C28.3294 161.269 27.6625 161.304 26.8398 160.249C26.3102 159.569 26.1603 159.516 25.7241 159.854C25.2954 160.187 25.1276 160.167 24.5995 159.72C24.1234 159.317 23.8932 159.274 23.6138 159.535C23.0597 160.053 22.5356 159.944 22.3473 159.271C22.2191 158.813 22.0224 158.712 21.5367 158.856C21.0668 158.995 20.8955 158.92 20.8955 158.573C20.8955 158.231 20.7233 158.151 20.2745 158.284C19.8591 158.407 19.5906 158.315 19.4639 158.006C19.3174 157.65 19.1774 157.62 18.846 157.877C18.5093 158.138 18.4176 158.102 18.4176 157.709C18.4176 157.383 18.2556 157.266 17.953 157.375C17.6974 157.467 17.4883 157.408 17.4883 157.244C17.4883 157.08 17.3403 157.032 17.1594 157.136C16.9785 157.241 15.851 156.396 14.6536 155.259C12.1183 152.852 11.322 152.583 9.35941 153.471C8.36079 153.923 7.84134 154.41 7.35071 155.353C6.55312 156.888 4.88947 158.718 4.29197 158.718C3.75581 158.718 3.73723 158.374 4.24676 157.875C4.45987 157.667 4.04698 157.771 3.32992 158.107C2.61255 158.443 1.78677 158.718 1.49499 158.718C1.04926 158.718 1.08395 158.598 1.71025 157.975L2.45643 157.233L1.58915 157.541C0.453938 157.944 -0.183517 157.922 0.607261 157.506C2.53202 156.494 5.25405 154.099 6.75507 152.097C11.4108 145.886 15.3133 142.79 20.8955 140.876C22.1732 140.438 23.4107 139.831 23.6454 139.526Z" fill="#3D3C3C"/>
</svg>
