<svg width="113" height="128" viewBox="0 0 113 128" fill="none" xmlns="http://www.w3.org/2000/svg">
<path d="M21.9962 48.8126C21.9962 33.3802 24.3068 23.0428 29.7177 16.556C35.1067 10.0955 43.6734 7.33972 56.5074 7.33972C69.3418 7.33972 77.7419 10.0955 82.9682 16.5503C88.22 23.0365 90.3701 33.3744 90.3701 48.8126V95.2558H21.9961L21.9961 94.4635L21.9961 90.9062L21.9962 78.9117L21.9962 48.8126Z" fill="url(#paint0_linear_783_219)" stroke="white"/>
<path d="M24.5216 33.2214V94.4675M32.7749 38.1832L32.5321 88.4612M38.8222 42.0576L39.0842 83.3232M24.9729 33.5265L38.6844 41.7875M24.4277 63.0529L38.8152 61.4094M25.6194 94.7786L39.0819 83.4525" stroke="white" stroke-width="3" stroke-linecap="round"/>
<path d="M88.8224 33.2214V94.4675M80.5691 38.1832L80.8119 88.4612M74.5218 42.0576L74.2598 83.3232M88.371 33.5265L74.6596 41.7875M88.9163 63.0529L74.5288 61.4094M87.7246 94.7786L74.2621 83.4525" stroke="white" stroke-width="3" stroke-linecap="round"/>
<path d="M23.4512 33.2214H90.871M38.8974 9.77151L56.9119 32.227M57.411 32.2276L75.4242 9.771" stroke="white" stroke-width="3" stroke-linecap="round"/>
<path d="M59.5248 65.1839C58.7566 62.9948 58.594 62.7466 57.8326 62.6003C57.3972 62.5168 56.6551 62.5119 56.1833 62.5897C54.4328 62.8783 53.6454 63.8287 52.0661 67.5596C50.1471 72.0927 49.3148 73.3638 47.496 74.5392C46.7072 75.049 45.3272 76.4297 44.4293 77.6075C40.3557 82.9512 39.7449 83.8072 39.0464 85.1515C38.6377 85.938 36.961 88.1492 35.3206 90.0655C31.4027 94.6412 31.3976 94.6489 31.2902 95.9548C31.1859 97.2219 31.3495 97.3311 33.8206 97.6476C35.2482 97.8303 36.0377 97.6618 39.4001 96.4572C43.9085 94.8425 44.5899 94.716 46.2385 95.1864C47.0565 95.4198 48.0497 95.4244 49.3247 95.201C50.3585 95.0196 51.3597 94.9673 51.5494 95.0845C52.2068 95.4903 57.9963 95.0947 58.4993 94.6091C59.0458 94.0821 58.9999 94.0699 56.7491 94.1454C54.5893 94.2175 53.4385 93.2923 53.4385 91.4829C53.4385 90.375 53.6876 90.0423 56.03 88.0198C60.6046 84.0697 61.4232 81.12 59.8418 74.287C58.6619 69.1889 58.4053 67.1508 58.9048 66.8529C59.123 66.7228 59.555 66.8155 59.8652 67.0588C60 67.0588 60.2431 67.0588 60.151 66.839C59.9983 66.4749 59.7163 65.7301 59.5248 65.1839Z" fill="white"/>
<path d="M59.5248 65.1839C58.7566 62.9948 58.594 62.7466 57.8326 62.6003C57.3972 62.5168 56.6551 62.5119 56.1833 62.5897C54.4328 62.8783 53.6454 63.8287 52.0661 67.5596C50.1471 72.0927 49.3148 73.3638 47.496 74.5392C46.7072 75.049 45.3272 76.4297 44.4293 77.6075C40.3557 82.9512 39.7449 83.8072 39.0464 85.1515C38.6377 85.938 36.961 88.1492 35.3206 90.0655C31.4027 94.6412 31.3976 94.6489 31.2902 95.9548C31.1859 97.2219 31.3495 97.3311 33.8206 97.6476C35.2482 97.8303 36.0377 97.6618 39.4001 96.4572C43.9085 94.8425 44.5899 94.716 46.2385 95.1864C47.0565 95.4198 48.0497 95.4244 49.3247 95.201C50.3585 95.0196 51.3597 94.9673 51.5494 95.0845C52.2068 95.4903 57.9963 95.0947 58.4993 94.6091C59.0458 94.0821 58.9999 94.0699 56.7491 94.1454C54.5893 94.2175 53.4385 93.2923 53.4385 91.4829C53.4385 90.375 53.6876 90.0423 56.03 88.0198C60.6046 84.0697 61.4232 81.12 59.8418 74.287C58.6619 69.1889 58.4053 67.1508 58.9048 66.8529C59.123 66.7228 59.555 66.8155 59.8652 67.0588C60 67.0588 60.2431 67.0588 60.151 66.839C59.9983 66.4749 59.7163 65.7301 59.5248 65.1839Z" stroke="white"/>
<path d="M112.366 95.2213V128H102.178V104.714H10.3359L10.1883 128H0L0.147656 95.2213H13.1414V44.6443C13.1414 30.2078 16.9805 19.1827 24.6586 11.5689C32.4352 3.85632 42.968 0 56.257 0C69.5461 0 80.0297 3.85632 87.7078 11.5689C95.4844 19.1827 99.3727 30.2078 99.3727 44.6443V95.2213H112.366ZM88.4461 95.2213V43.606C88.4461 32.4326 85.5914 24.0278 79.882 18.3917C74.2711 12.6566 66.3961 9.7891 56.257 9.7891C46.0195 9.7891 38.0461 12.6566 32.3367 18.3917C26.7258 24.0278 23.9203 32.4326 23.9203 43.606V95.2213H88.4461Z" fill="white"/>
<defs>
<linearGradient id="paint0_linear_783_219" x1="56.1831" y1="6.83972" x2="56.1831" y2="95.7558" gradientUnits="userSpaceOnUse">
<stop offset="0.46875" stop-color="#CCCCCC"/>
<stop offset="1" stop-color="#555656"/>
</linearGradient>
</defs>
</svg>
